<svg width="67" height="67" viewBox="0 0 67 67" fill="none" xmlns="http://www.w3.org/2000/svg">
<path d="M28.2656 56.5312C28.2656 56.8089 28.1553 57.0752 27.959 57.2715C27.7627 57.4678 27.4964 57.5781 27.2188 57.5781H12.5625C11.7296 57.5781 10.9307 57.2472 10.3417 56.6583C9.75276 56.0693 9.42188 55.2704 9.42188 54.4375V12.5625C9.42188 11.7296 9.75276 10.9307 10.3417 10.3417C10.9307 9.75276 11.7296 9.42188 12.5625 9.42188H27.2188C27.4964 9.42188 27.7627 9.53217 27.959 9.7285C28.1553 9.92482 28.2656 10.1911 28.2656 10.4688C28.2656 10.7464 28.1553 11.0127 27.959 11.209C27.7627 11.4053 27.4964 11.5156 27.2188 11.5156H12.5625C12.2849 11.5156 12.0186 11.6259 11.8222 11.8222C11.6259 12.0186 11.5156 12.2849 11.5156 12.5625V54.4375C11.5156 54.7151 11.6259 54.9814 11.8222 55.1778C12.0186 55.3741 12.2849 55.4844 12.5625 55.4844H27.2188C27.4964 55.4844 27.7627 55.5947 27.959 55.791C28.1553 55.9873 28.2656 56.2536 28.2656 56.5312ZM57.2719 32.7593L46.8032 22.2906C46.6067 22.0941 46.3403 21.9838 46.0625 21.9838C45.7847 21.9838 45.5183 22.0941 45.3218 22.2906C45.1254 22.487 45.015 22.7534 45.015 23.0312C45.015 23.3091 45.1254 23.5755 45.3218 23.7719L54.003 32.4531H27.2188C26.9411 32.4531 26.6748 32.5634 26.4785 32.7597C26.2822 32.9561 26.1719 33.2224 26.1719 33.5C26.1719 33.7776 26.2822 34.0439 26.4785 34.2403C26.6748 34.4366 26.9411 34.5469 27.2188 34.5469H54.003L45.3218 43.2281C45.1254 43.4245 45.015 43.6909 45.015 43.9688C45.015 44.2466 45.1254 44.513 45.3218 44.7094C45.5183 44.9058 45.7847 45.0162 46.0625 45.0162C46.3403 45.0162 46.6067 44.9058 46.8032 44.7094L57.2719 34.2407C57.3692 34.1434 57.4465 34.028 57.4991 33.9009C57.5518 33.7738 57.5789 33.6376 57.5789 33.5C57.5789 33.3624 57.5518 33.2262 57.4991 33.0991C57.4465 32.972 57.3692 32.8566 57.2719 32.7593Z" fill="#F8F8F8"/>
</svg>
