<svg width="74" height="74" viewBox="0 0 74 74" fill="none" xmlns="http://www.w3.org/2000/svg">
<path d="M26.028 16.3062C26.0246 15.5099 26.2994 14.7374 26.805 14.1221C27.3105 13.5068 28.015 13.0873 28.7968 12.9361L59.126 7.0038C60.0151 6.82741 60.9379 7.01142 61.6913 7.51535C62.4447 8.01927 62.9671 8.80184 63.1436 9.69092M63.1606 49.1992L63.2084 18.4645C63.2084 17.9593 63.0965 17.4604 62.8806 17.0036C62.6647 16.5468 62.3503 16.1436 61.9599 15.8229C61.5695 15.5023 61.1128 15.2721 60.6228 15.1491C60.1328 15.0261 59.6216 15.0132 59.126 15.1114L28.7968 21.0438C28.015 21.195 27.3105 21.6144 26.805 22.2297C26.2994 22.845 26.0246 23.6175 26.028 24.4138V59.4359" stroke="#F8F8F8" stroke-linecap="round" stroke-linejoin="round"/>
<path d="M18.4168 67.0625C22.6289 67.0625 26.0434 63.6479 26.0434 59.4359C26.0434 55.2238 22.6289 51.8092 18.4168 51.8092C14.2047 51.8092 10.7902 55.2238 10.7902 59.4359C10.7902 63.6479 14.2047 67.0625 18.4168 67.0625Z" stroke="#F8F8F8" stroke-linecap="round" stroke-linejoin="round"/>
<path d="M55.5354 56.8258C59.7475 56.8258 63.1621 53.4113 63.1621 49.1992C63.1621 44.9871 59.7475 41.5726 55.5354 41.5726C51.3234 41.5726 47.9088 44.9871 47.9088 49.1992C47.9088 53.4113 51.3234 56.8258 55.5354 56.8258Z" stroke="#F8F8F8" stroke-linecap="round" stroke-linejoin="round"/>
</svg>
