<svg width="65" height="65" viewBox="0 0 65 65" fill="none" xmlns="http://www.w3.org/2000/svg">
<path d="M32.5001 27.0833C38.4832 27.0833 43.3334 22.2331 43.3334 16.25C43.3334 10.2669 38.4832 5.41667 32.5001 5.41667C26.517 5.41667 21.6667 10.2669 21.6667 16.25C21.6667 22.2331 26.517 27.0833 32.5001 27.0833Z" stroke="#F8F8F8" stroke-width="1.5"/>
<path d="M54.1613 48.75C54.1667 48.3058 54.1667 47.8536 54.1667 47.3958C54.1667 40.6656 44.4655 35.2083 32.5 35.2083C20.5346 35.2083 10.8334 40.6656 10.8334 47.3958C10.8334 54.1261 10.8334 59.5833 32.5 59.5833C38.5423 59.5833 42.9 59.1581 46.0417 58.3998" stroke="#F8F8F8" stroke-width="1.5" stroke-linecap="round"/>
</svg>
